<?xml version="1.0" standalone="no"?>
<!DOCTYPE svg PUBLIC "-//W3C//DTD SVG 20010904//EN"
 "http://www.w3.org/TR/2001/REC-SVG-20010904/DTD/svg10.dtd">
<svg version="1.0" xmlns="http://www.w3.org/2000/svg"
 width="600.000000pt" height="360.000000pt" viewBox="0 0 600.000000 360.000000"
 preserveAspectRatio="xMidYMid meet">

<g transform="translate(0.000000,360.000000) scale(0.100000,-0.100000)"
fill="#000000" stroke="none">
<path d="M2270 2365 c0 -9 566 -985 579 -998 5 -5 57 76 117 180 188 327 396
688 399 691 8 8 140 3 138 -5 -1 -5 -57 -105 -126 -223 -68 -118 -195 -339
-282 -490 -86 -151 -159 -278 -162 -282 -2 -5 29 -8 71 -8 l74 0 100 173 c193
333 552 960 552 963 0 2 -99 4 -219 4 l-219 0 -213 -370 c-118 -204 -218 -371
-224 -372 -8 -1 -353 581 -358 605 -2 8 131 13 137 5 2 -1 48 -79 101 -173 54
-93 104 -176 111 -184 10 -11 18 -2 48 48 l35 61 -110 190 -111 190 -219 0
c-120 0 -219 -2 -219 -5z"/>
</g>
</svg>
